# xmcd
#
# Track frame offsets:
#	150
#	13555
#	28038
#	46535
#	70437
#	88287
#	101880
#	112921
#	131780
#	147928
#	163595
#	182373
#	195480
#	211581
#	225301
#	237501
#	255208
#	270929
#	287550
#	300229
#	315628
#
# Disc length: 4412 seconds
#
# Revision: 1
# Processed by: cddbd v1.5.2PL0 Copyright (c) Steve Scherf et al.
# Submitted via: audiograbber 1.83.01
#
DISCID=0d113a15
DTITLE=Various Artist - The Balladeers Vol 21
DYEAR=2019
DGENRE=Country
TTITLE0=Dean Perrett - Ringers Life
TTITLE1=Anita Lee - Sugar Cane
TTITLE2=Lex K - Old Love Songs and Memories
TTITLE3=Shelly Jones Band - My Angel
TTITLE4=Michael Clarke - Bloke From Bendameer
TTITLE5=Kylie Adams-Collier - On A Sandstone Bridge
TTITLE6=Malcolm Doyle - The Square Dance
TTITLE7=Laura Downing - Home Is Waiting Here
TTITLE8=Peter Coad OAM - Wally and The Pack Horse
TTITLE9=Showponey Express - The Mighty Murray River
TTITLE10=Chris Strohfield - Eula Queen
TTITLE11=Lorraine Pfitzner OAM - One Small Photograph
TTITLE12=Jack Graydon - Driving Through The Valley
TTITLE13=Olive Bice OAM - Proud To Be Australian
TTITLE14=Gordon Larkin - Piebald Poney Dream
TTITLE15=Robyn Norton - Spread Your Wings
TTITLE16=Peter C Sheahan - Gentleman Stan
TTITLE17=Stephen R Cheney - The Cowboy's Lullaby
TTITLE18=Paul Seils - Exiled
TTITLE19=Ivan Kovac - A Bloke From The Vanishing Breed (Tribute To Bluey Franci
TTITLE19=s)
TTITLE20=Dawn Brydon - The Bargain
EXTD=
EXTT0=
EXTT1=
EXTT2=
EXTT3=
EXTT4=
EXTT5=
EXTT6=
EXTT7=
EXTT8=
EXTT9=
EXTT10=
EXTT11=
EXTT12=
EXTT13=
EXTT14=
EXTT15=
EXTT16=
EXTT17=
EXTT18=
EXTT19=
EXTT20=
PLAYORDER=
